External Loads File
version=1
nRows=94
nColumns=13
Range=5.000000e-03-10 seconds
endheader
time 	forceRightX 	forceRightY 	forceRightZ 	pointRightX 	pointRightY 	pointRightZ 	forceLeftX 	forceLeftY 	forceLeftZ 	pointLeftX 	pointLeftY 	pointLeftZ 		
0.005000 33.523426 205.246506 -0.000000 0.145263 0.188733 -0.165729 -15.281721 129.168365 -0.000000 0.343655 0.451561 -0.417077
0.010000 33.964098 206.603524 -0.000000 0.145205 0.188772 -0.165729 -13.750701 131.972062 -0.000000 0.343674 0.451530 -0.417069
0.015000 34.393382 207.913242 -0.000000 0.145134 0.188808 -0.165731 -12.269375 134.712703 -0.000000 0.343689 0.451497 -0.417068
0.020000 34.792697 209.148895 -0.000000 0.145114 0.188859 -0.165751 -10.957101 137.251196 -0.000000 0.343722 0.451462 -0.417099
0.025000 35.130867 210.303287 -0.000000 0.145098 0.188858 -0.165794 -9.876248 139.527822 -0.000000 0.343752 0.451467 -0.417099
0.030000 35.449969 211.360316 -0.000000 0.145076 0.188868 -0.165799 -8.995982 141.533332 -0.000000 0.343747 0.451400 -0.417102
0.035000 35.727597 212.307164 -0.000000 0.145022 0.188902 -0.165795 -8.280585 143.311457 -0.000000 0.343738 0.451366 -0.417088
0.040000 35.924053 213.135471 -0.000000 0.144978 0.188923 -0.165805 -7.690883 144.935203 -0.000000 0.343732 0.451342 -0.417083
0.045000 36.036369 213.854406 -0.000000 0.144938 0.188943 -0.165797 -7.205012 146.445116 -0.000000 0.343716 0.451328 -0.417088
0.050000 36.099813 214.496025 -0.000000 0.144905 0.188962 -0.165799 -6.819324 147.844146 -0.000000 0.343709 0.451292 -0.417088
0.055000 36.118254 215.104539 -0.000000 0.144860 0.188992 -0.165803 -6.560353 149.127905 -0.000000 0.343688 0.451276 -0.417094
0.060000 36.108896 215.704170 -0.000000 0.144834 0.189020 -0.165807 -6.429365 150.300194 -0.000000 0.343683 0.451238 -0.417103
0.065000 36.049748 216.306575 -0.000000 0.144786 0.189039 -0.165803 -6.424052 151.380063 -0.000000 0.343668 0.451232 -0.417108
0.070000 35.972404 216.915445 -0.000000 0.144748 0.189072 -0.165815 -6.479215 152.402416 -0.000000 0.343671 0.451178 -0.417108
0.075000 35.861336 217.559268 -0.000000 0.144690 0.189112 -0.165815 -6.560512 153.399354 -0.000000 0.343677 0.451153 -0.417119
0.080000 35.760980 218.264975 -0.000000 0.144643 0.189167 -0.165819 -6.609997 154.393447 -0.000000 0.343700 0.451082 -0.417124
0.085000 35.675491 219.058133 -0.000000 0.144555 0.189212 -0.165810 -6.634809 155.376341 -0.000000 0.343720 0.451035 -0.417115
0.090000 35.655620 219.946265 -0.000000 0.144429 0.189273 -0.165792 -6.644395 156.304031 -0.000000 0.343760 0.450980 -0.417101
0.095000 35.668260 220.944206 -0.000000 0.144320 0.189341 -0.165784 -6.710919 157.132955 -0.000000 0.343795 0.450910 -0.417097
0.100000 35.755460 222.052137 -0.000000 0.144213 0.189427 -0.165781 -6.837168 157.854967 -0.000000 0.343849 0.450816 -0.417103
0.105000 35.917627 223.283022 -0.000000 0.144084 0.189520 -0.165779 -7.046972 158.478833 -0.000000 0.343897 0.450748 -0.417105
0.110000 36.204833 224.654945 -0.000000 0.143940 0.189627 -0.165786 -7.316567 159.030303 -0.000000 0.343957 0.450667 -0.417101
0.115000 36.596623 226.202328 -0.000000 0.143804 0.189722 -0.165800 -7.651379 159.550992 -0.000000 0.344015 0.450580 -0.417117
0.120000 37.108434 227.941219 -0.000000 0.143664 0.189849 -0.165817 -8.023010 160.076371 -0.000000 0.344078 0.450501 -0.417111
0.125000 37.720136 229.877120 -0.000000 0.143519 0.189966 -0.165819 -8.425401 160.630886 -0.000000 0.344118 0.450370 -0.417137
0.130000 38.393081 232.004290 -0.000000 0.143385 0.190086 -0.165807 -8.847629 161.251752 -0.000000 0.344180 0.450301 -0.417155
0.135000 39.122621 234.285350 -0.000000 0.143264 0.190208 -0.165820 -9.244448 161.971721 -0.000000 0.344230 0.450238 -0.417168
0.140000 39.882990 236.651827 -0.000000 0.143154 0.190307 -0.165822 -9.599472 162.781820 -0.000000 0.344264 0.450158 -0.417186
0.145000 40.607191 239.011289 -0.000000 0.143055 0.190369 -0.165820 -9.929949 163.647755 -0.000000 0.344288 0.450105 -0.417202
0.150000 41.264557 241.245515 -0.000000 0.142951 0.190427 -0.165818 -10.213468 164.544171 -0.000000 0.344303 0.450053 -0.417218
0.155000 41.776447 243.249721 -0.000000 0.142872 0.190476 -0.165818 -10.447417 165.456344 -0.000000 0.344318 0.450005 -0.417233
0.160000 42.060072 244.949447 -0.000000 0.142823 0.190490 -0.165803 -10.624382 166.387869 -0.000000 0.344313 0.449985 -0.417238
0.165000 42.151917 246.283799 -0.000000 0.142784 0.190505 -0.165803 -10.665461 167.361653 -0.000000 0.344304 0.449950 -0.417243
0.170000 42.017878 247.233520 -0.000000 0.142762 0.190516 -0.165793 -10.570237 168.392176 -0.000000 0.344281 0.449954 -0.417245
0.175000 41.701719 247.799733 -0.000000 0.142777 0.190503 -0.165805 -10.314425 169.486112 -0.000000 0.344267 0.449941 -0.417250
0.180000 41.252065 248.022241 -0.000000 0.142802 0.190497 -0.165791 -9.904237 170.628077 -0.000000 0.344241 0.449954 -0.417240
0.185000 40.752673 247.963987 -0.000000 0.142840 0.190487 -0.165800 -9.368859 171.764596 -0.000000 0.344218 0.449974 -0.417231
0.190000 40.276724 247.697655 -0.000000 0.142886 0.190455 -0.165796 -8.769061 172.814964 -0.000000 0.344194 0.449985 -0.417225
0.195000 39.860714 247.291528 -0.000000 0.142951 0.190417 -0.165791 -8.185816 173.683880 -0.000000 0.344177 0.450017 -0.417217
0.200000 39.536123 246.788886 -0.000000 0.143009 0.190375 -0.165779 -7.696677 174.262886 -0.000000 0.344158 0.450044 -0.417207
0.205000 39.283603 246.214847 -0.000000 0.143091 0.190332 -0.165780 -7.389717 174.469082 -0.000000 0.344157 0.450093 -0.417204
0.210000 39.118206 245.585476 -0.000000 0.143152 0.190241 -0.165762 -7.276468 174.292342 -0.000000 0.344166 0.450114 -0.417191
0.215000 39.014688 244.931913 -0.000000 0.143231 0.190198 -0.165758 -7.353785 173.778402 -0.000000 0.344167 0.450167 -0.417187
0.220000 38.995988 244.269836 -0.000000 0.143291 0.190145 -0.165746 -7.552726 173.010940 -0.000000 0.344179 0.450186 -0.417183
0.225000 38.968190 243.613252 -0.000000 0.143366 0.190062 -0.165742 -7.860406 172.098911 -0.000000 0.344187 0.450235 -0.417164
0.230000 38.936978 242.948799 -0.000000 0.143430 0.189962 -0.165751 -8.194113 171.146425 -0.000000 0.344194 0.450284 -0.417148
0.235000 38.884107 242.270130 -0.000000 0.143522 0.189917 -0.165762 -8.508035 170.223747 -0.000000 0.344189 0.450318 -0.417140
0.240000 38.778528 241.585992 -0.000000 0.143604 0.189839 -0.165755 -8.787014 169.376126 -0.000000 0.344201 0.450379 -0.417127
0.245000 38.645165 240.914974 -0.000000 0.143672 0.189770 -0.165753 -9.009377 168.628766 -0.000000 0.344197 0.450429 -0.417114
0.250000 38.468921 240.291111 -0.000000 0.143762 0.189698 -0.165753 -9.200599 167.997162 -0.000000 0.344193 0.450517 -0.417113
0.255000 38.297333 239.721475 -0.000000 0.143833 0.189600 -0.165753 -9.327867 167.510552 -0.000000 0.344171 0.450580 -0.417100
0.260000 38.136752 239.195616 -0.000000 0.143923 0.189544 -0.165753 -9.381386 167.185469 -0.000000 0.344152 0.450642 -0.417093
0.265000 37.948590 238.706325 -0.000000 0.144007 0.189457 -0.165758 -9.397726 167.008418 -0.000000 0.344125 0.450711 -0.417093
0.270000 37.746929 238.249172 -0.000000 0.144101 0.189395 -0.165760 -9.377011 166.966311 -0.000000 0.344077 0.450767 -0.417100
0.275000 37.521201 237.829169 -0.000000 0.144196 0.189324 -0.165746 -9.324517 167.051702 -0.000000 0.344028 0.450850 -0.417098
0.280000 37.306565 237.437057 -0.000000 0.144277 0.189266 -0.165763 -9.211088 167.246811 -0.000000 0.343981 0.450921 -0.417093
0.285000 37.072382 237.069836 -0.000000 0.144362 0.189218 -0.165764 -9.062743 167.516316 -0.000000 0.343927 0.450991 -0.417098
0.290000 36.822049 236.732412 -0.000000 0.144442 0.189170 -0.165784 -8.894756 167.821713 -0.000000 0.343869 0.451058 -0.417080
0.295000 36.577716 236.440005 -0.000000 0.144515 0.189108 -0.165791 -8.707608 168.136230 -0.000000 0.343826 0.451110 -0.417080
0.300000 36.344298 236.202769 -0.000000 0.144585 0.189072 -0.165796 -8.501484 168.446355 -0.000000 0.343780 0.451164 -0.417080
0.305000 36.127431 236.016948 -0.000000 0.144646 0.189032 -0.165791 -8.294217 168.723130 -0.000000 0.343741 0.451220 -0.417058
0.310000 35.956125 235.874545 -0.000000 0.144688 0.189004 -0.165804 -8.123920 168.914313 -0.000000 0.343699 0.451257 -0.417046
0.315000 35.828804 235.776351 -0.000000 0.144748 0.188983 -0.165813 -8.044462 168.987777 -0.000000 0.343669 0.451289 -0.417044
0.320000 35.784449 235.714689 -0.000000 0.144766 0.188969 -0.165813 -8.042534 168.954882 -0.000000 0.343658 0.451320 -0.417039
0.325000 35.795675 235.687861 -0.000000 0.144780 0.188944 -0.165820 -8.132983 168.834354 -0.000000 0.343652 0.451317 -0.417047
0.330000 35.860584 235.688797 -0.000000 0.144784 0.188940 -0.165817 -8.298992 168.645002 -0.000000 0.343665 0.451320 -0.417039
0.335000 35.955723 235.711962 -0.000000 0.144796 0.188961 -0.165823 -8.522087 168.411449 -0.000000 0.343670 0.451313 -0.417020
0.340000 36.124126 235.740061 -0.000000 0.144774 0.188980 -0.165838 -8.744097 168.145838 -0.000000 0.343733 0.451290 -0.417049
0.345000 36.304923 235.774231 -0.000000 0.144742 0.188993 -0.165840 -9.003845 167.831908 -0.000000 0.343791 0.451261 -0.417042
0.350000 36.510021 235.815240 -0.000000 0.144715 0.189027 -0.165832 -9.303918 167.447356 -0.000000 0.343849 0.451216 -0.417041
0.355000 36.741479 235.879608 -0.000000 0.144693 0.189059 -0.165896 -9.660549 166.974357 -0.000000 0.343922 0.451171 -0.417047
0.360000 37.032212 235.979230 -0.000000 0.144642 0.189102 -0.165896 -10.053026 166.417364 -0.000000 0.343994 0.451121 -0.417050
0.365000 37.377766 236.115447 -0.000000 0.144578 0.189160 -0.165903 -10.461455 165.800423 -0.000000 0.344073 0.451073 -0.417037
0.370000 37.749678 236.287447 -0.000000 0.144515 0.189200 -0.165913 -10.876081 165.144857 -0.000000 0.344147 0.451010 -0.417036
0.375000 38.169665 236.506001 -0.000000 0.144420 0.189251 -0.165864 -11.253879 164.478290 -0.000000 0.344208 0.450949 -0.417018
0.380000 38.613093 236.802556 -0.000000 0.144366 0.189302 -0.165873 -11.577218 163.852656 -0.000000 0.344282 0.450886 -0.417016
0.385000 39.092919 237.173788 -0.000000 0.144293 0.189355 -0.165862 -11.796655 163.332680 -0.000000 0.344350 0.450837 -0.417018
0.390000 39.563861 237.578058 -0.000000 0.144233 0.189403 -0.165868 -11.907366 162.961108 -0.000000 0.344409 0.450775 -0.417021
0.395000 39.966298 237.955184 -0.000000 0.144180 0.189441 -0.165868 -11.938163 162.738253 -0.000000 0.344450 0.450729 -0.417022
0.400000 40.280064 238.244993 -0.000000 0.144138 0.189480 -0.165871 -11.926496 162.615873 -0.000000 0.344492 0.450692 -0.417022
0.405000 40.469129 238.401682 -0.000000 0.144104 0.189525 -0.165873 -11.922910 162.535229 -0.000000 0.344513 0.450663 -0.417031
0.410000 40.524778 238.387162 -0.000000 0.144074 0.189550 -0.165880 -11.924396 162.477362 -0.000000 0.344524 0.450623 -0.417022
0.415000 40.446094 238.177820 -0.000000 0.144056 0.189572 -0.165867 -11.902075 162.451289 -0.000000 0.344544 0.450609 -0.417062
0.420000 40.236898 237.775384 -0.000000 0.144019 0.189581 -0.165865 -11.832027 162.467873 -0.000000 0.344520 0.450592 -0.417033
0.425000 39.924819 237.220775 -0.000000 0.144022 0.189588 -0.165859 -11.697456 162.530679 -0.000000 0.344501 0.450576 -0.417046
0.430000 39.581318 236.587610 -0.000000 0.144016 0.189608 -0.165848 -11.494298 162.616061 -0.000000 0.344495 0.450575 -0.417071
0.435000 39.223365 235.966325 -0.000000 0.144011 0.189614 -0.165863 -11.284622 162.681681 -0.000000 0.344454 0.450572 -0.417039
0.440000 38.943434 235.412192 -0.000000 0.143995 0.189630 -0.165855 -11.055644 162.723415 -0.000000 0.344430 0.450558 -0.417038
0.445000 38.748815 234.963068 -0.000000 0.143988 0.189645 -0.165854 -10.821220 162.760715 -0.000000 0.344437 0.450549 -0.417065
0.450000 38.623533 234.635043 -0.000000 0.143951 0.189651 -0.165842 -10.601786 162.803793 -0.000000 0.344418 0.450553 -0.417072
0.455000 38.589809 234.423513 -0.000000 0.143922 0.189703 -0.165848 -10.383440 162.858633 -0.000000 0.344384 0.450533 -0.417034
0.460000 38.633868 234.320426 -0.000000 0.143897 0.189720 -0.165850 -10.176306 162.917906 -0.000000 0.344392 0.450510 -0.417071
0.465000 38.748151 234.312243 -0.000000 0.143864 0.189747 -0.165851 -9.995643 162.953300 -0.000000 0.344405 0.450488 -0.417074
0.470000 38.932552 234.390489 -0.000000 0.143812 0.189780 -0.165847 -9.854502 162.935532 -0.000000 0.344414 0.450457 -0.417076
